<svg xmlns="http://www.w3.org/2000/svg" xmlns:xlink="http://www.w3.org/1999/xlink" width="500" zoomAndPan="magnify" viewBox="0 0 375 374.999991" height="500" preserveAspectRatio="xMidYMid meet" version="1.0"><defs><clipPath id="641e9a9e9c"><path d="M 22.054688 33 L 352.804688 33 L 352.804688 349 L 22.054688 349 Z M 22.054688 33 " clip-rule="nonzero"/></clipPath></defs><g clip-path="url(#641e9a9e9c)"><path fill="#000000" d="M 87.125 238.480469 L 87.125 316.984375 C 87.125 316.984375 87.125 317.238281 87.125 317.382812 C 87.109375 317.5625 87.109375 317.742188 87.125 317.921875 C 87.203125 318.207031 87.308594 318.484375 87.449219 318.746094 C 87.449219 318.746094 87.449219 318.746094 87.449219 319.035156 C 87.765625 319.445312 88.148438 319.78125 88.601562 320.039062 L 88.960938 320.039062 C 89.152344 320.140625 89.355469 320.210938 89.570312 320.257812 C 89.929688 320.449219 90.3125 320.558594 90.722656 320.578125 C 91.054688 320.617188 91.390625 320.617188 91.726562 320.578125 L 91.980469 320.578125 C 92.222656 320.507812 92.453125 320.402344 92.664062 320.257812 L 137.457031 288.875 L 196.023438 347.359375 C 196.722656 348.074219 197.574219 348.433594 198.574219 348.4375 L 198.898438 348.4375 C 199.425781 348.390625 199.917969 348.238281 200.375 347.972656 C 200.835938 347.707031 201.21875 347.359375 201.523438 346.929688 L 352.335938 131.433594 C 352.554688 131.164062 352.722656 130.863281 352.839844 130.535156 C 352.839844 130.535156 352.839844 130.285156 352.839844 130.175781 C 352.875 129.890625 352.875 129.601562 352.839844 129.3125 L 352.839844 128.917969 C 352.800781 128.527344 352.691406 128.15625 352.515625 127.804688 C 352.3125 127.433594 352.0625 127.097656 351.761719 126.796875 L 351.726562 126.472656 C 351.503906 126.304688 351.261719 126.160156 351.007812 126.042969 L 350.574219 126.042969 C 350.324219 126.007812 350.070312 126.007812 349.820312 126.042969 C 349.652344 126.023438 349.484375 126.023438 349.316406 126.042969 L 349.101562 126.042969 L 251.746094 138.550781 C 252.1875 136.90625 252.574219 135.25 252.914062 133.582031 C 253.253906 131.914062 253.539062 130.234375 253.777344 128.546875 C 254.011719 126.863281 254.195312 125.167969 254.328125 123.472656 C 254.460938 121.773438 254.539062 120.074219 254.566406 118.371094 C 254.59375 116.667969 254.570312 114.964844 254.492188 113.265625 C 254.414062 111.5625 254.285156 109.867188 254.105469 108.171875 C 253.921875 106.480469 253.6875 104.792969 253.402344 103.113281 C 253.117188 101.4375 252.78125 99.769531 252.394531 98.109375 C 252.007812 96.449219 251.570312 94.804688 251.082031 93.175781 C 250.59375 91.542969 250.054688 89.929688 249.464844 88.332031 C 248.878906 86.730469 248.242188 85.152344 247.558594 83.59375 C 246.871094 82.035156 246.140625 80.5 245.363281 78.984375 C 244.582031 77.46875 243.757812 75.980469 242.886719 74.515625 C 242.015625 73.054688 241.101562 71.617188 240.144531 70.210938 C 239.183594 68.804688 238.183594 67.425781 237.140625 66.082031 C 236.097656 64.734375 235.011719 63.421875 233.886719 62.140625 C 232.765625 60.863281 231.601562 59.621094 230.402344 58.410156 C 229.199219 57.203125 227.964844 56.03125 226.691406 54.902344 C 225.421875 53.769531 224.113281 52.675781 222.773438 51.625 C 221.433594 50.574219 220.066406 49.5625 218.664062 48.59375 C 217.261719 47.628906 215.832031 46.703125 214.375 45.824219 C 212.917969 44.945312 211.433594 44.109375 209.921875 43.320312 C 208.414062 42.53125 206.882812 41.789062 205.328125 41.09375 C 203.769531 40.402344 202.195312 39.753906 200.601562 39.15625 C 199.007812 38.558594 197.394531 38.007812 195.765625 37.511719 C 194.140625 37.011719 192.496094 36.5625 190.839844 36.164062 C 189.183594 35.765625 187.519531 35.417969 185.839844 35.125 C 184.164062 34.828125 182.480469 34.582031 180.785156 34.390625 C 179.09375 34.199219 177.398438 34.058594 175.695312 33.96875 C 173.996094 33.882812 172.292969 33.84375 170.589844 33.863281 C 168.886719 33.878906 167.1875 33.945312 165.488281 34.066406 C 163.789062 34.1875 162.09375 34.359375 160.40625 34.585938 C 158.71875 34.808594 157.039062 35.085938 155.367188 35.414062 C 153.695312 35.742188 152.035156 36.121094 150.386719 36.550781 C 148.742188 36.980469 147.105469 37.460938 145.488281 37.992188 C 143.871094 38.519531 142.269531 39.101562 140.6875 39.730469 C 139.101562 40.359375 137.542969 41.035156 136 41.757812 C 134.457031 42.484375 132.941406 43.253906 131.445312 44.070312 C 129.953125 44.890625 128.484375 45.75 127.042969 46.660156 C 125.601562 47.566406 124.191406 48.519531 122.808594 49.511719 C 121.425781 50.507812 120.074219 51.542969 118.753906 52.621094 C 117.4375 53.695312 116.152344 54.8125 114.902344 55.96875 C 113.652344 57.125 112.4375 58.320312 111.261719 59.550781 C 110.082031 60.78125 108.945312 62.046875 107.847656 63.347656 C 106.746094 64.648438 105.6875 65.980469 104.671875 67.347656 C 103.652344 68.714844 102.679688 70.109375 101.746094 71.535156 C 100.816406 72.960938 99.929688 74.414062 99.085938 75.890625 C 98.242188 77.371094 97.445312 78.878906 96.695312 80.40625 C 95.945312 81.933594 95.246094 83.484375 94.589844 85.058594 C 93.933594 86.628906 93.328125 88.21875 92.773438 89.828125 C 92.214844 91.4375 91.707031 93.0625 91.25 94.703125 C 90.792969 96.34375 90.386719 97.996094 90.03125 99.664062 C 89.675781 101.328125 89.371094 103.003906 89.117188 104.6875 C 88.863281 106.371094 88.664062 108.0625 88.515625 109.757812 C 88.367188 111.453125 88.269531 113.152344 88.222656 114.855469 C 88.179688 116.558594 88.1875 118.257812 88.246094 119.960938 C 88.308594 121.664062 88.417969 123.363281 88.582031 125.058594 C 88.746094 126.75 88.964844 128.441406 89.230469 130.121094 C 89.5 131.804688 89.820312 133.476562 90.191406 135.136719 C 90.558594 136.800781 90.980469 138.449219 91.453125 140.085938 C 91.925781 141.722656 92.445312 143.339844 93.019531 144.945312 C 93.589844 146.550781 94.210938 148.136719 94.878906 149.699219 C 95.546875 151.265625 96.265625 152.8125 97.027344 154.332031 C 97.792969 155.855469 98.601562 157.351562 99.457031 158.824219 L 25.542969 168.710938 C 24.859375 168.796875 24.253906 169.058594 23.722656 169.492188 C 23.191406 169.925781 22.8125 170.464844 22.59375 171.117188 C 22.371094 171.765625 22.339844 172.421875 22.492188 173.089844 C 22.648438 173.761719 22.96875 174.335938 23.457031 174.820312 Z M 99.492188 306.488281 L 117.039062 268.351562 L 132.351562 283.699219 Z M 94.316406 300.523438 L 94.316406 239.414062 L 296.972656 154.941406 L 114.125 259.183594 C 113.460938 259.566406 112.96875 260.105469 112.652344 260.800781 Z M 198.070312 339.273438 L 121.78125 263.066406 L 337.488281 140.3125 Z M 323.035156 136.324219 L 231.578125 174.425781 C 235.460938 170.359375 238.890625 165.945312 241.878906 161.179688 C 244.863281 156.417969 247.335938 151.402344 249.300781 146.136719 Z M 95.359375 117.128906 C 95.359375 115.886719 95.390625 114.640625 95.449219 113.398438 C 95.511719 112.15625 95.601562 110.917969 95.722656 109.679688 C 95.847656 108.441406 96 107.207031 96.179688 105.976562 C 96.363281 104.75 96.578125 103.523438 96.820312 102.304688 C 97.0625 101.082031 97.335938 99.871094 97.636719 98.664062 C 97.9375 97.457031 98.269531 96.261719 98.632812 95.070312 C 98.992188 93.878906 99.382812 92.699219 99.800781 91.527344 C 100.21875 90.359375 100.667969 89.199219 101.144531 88.046875 C 101.621094 86.898438 102.125 85.761719 102.65625 84.640625 C 103.1875 83.515625 103.746094 82.402344 104.332031 81.308594 C 104.917969 80.210938 105.53125 79.128906 106.171875 78.0625 C 106.8125 76.996094 107.476562 75.945312 108.167969 74.910156 C 108.859375 73.878906 109.574219 72.859375 110.316406 71.863281 C 111.054688 70.863281 111.820312 69.882812 112.609375 68.921875 C 113.398438 67.960938 114.210938 67.019531 115.046875 66.097656 C 115.882812 65.175781 116.738281 64.277344 117.617188 63.394531 C 118.5 62.515625 119.398438 61.660156 120.320312 60.824219 C 121.242188 59.988281 122.183594 59.175781 123.144531 58.386719 C 124.105469 57.597656 125.085938 56.835938 126.085938 56.09375 C 127.085938 55.351562 128.101562 54.636719 129.136719 53.945312 C 130.167969 53.253906 131.21875 52.589844 132.285156 51.949219 C 133.355469 51.3125 134.4375 50.699219 135.53125 50.113281 C 136.628906 49.527344 137.742188 48.96875 138.863281 48.433594 C 139.988281 47.902344 141.125 47.398438 142.273438 46.925781 C 143.425781 46.449219 144.585938 46 145.753906 45.582031 C 146.925781 45.164062 148.105469 44.773438 149.296875 44.410156 C 150.488281 44.050781 151.6875 43.71875 152.890625 43.417969 C 154.097656 43.113281 155.3125 42.84375 156.53125 42.601562 C 157.753906 42.355469 158.976562 42.144531 160.207031 41.960938 C 161.4375 41.78125 162.671875 41.628906 163.910156 41.503906 C 165.148438 41.382812 166.386719 41.292969 167.628906 41.230469 C 168.871094 41.171875 170.117188 41.140625 171.359375 41.140625 C 172.601562 41.140625 173.847656 41.171875 175.089844 41.230469 C 176.332031 41.292969 177.570312 41.382812 178.808594 41.503906 C 180.046875 41.628906 181.28125 41.78125 182.511719 41.960938 C 183.742188 42.144531 184.964844 42.355469 186.1875 42.601562 C 187.40625 42.84375 188.621094 43.113281 189.824219 43.417969 C 191.03125 43.71875 192.230469 44.050781 193.421875 44.410156 C 194.609375 44.773438 195.792969 45.164062 196.964844 45.582031 C 198.132812 46 199.292969 46.449219 200.441406 46.925781 C 201.59375 47.398438 202.730469 47.902344 203.855469 48.433594 C 204.976562 48.96875 206.089844 49.527344 207.1875 50.113281 C 208.28125 50.699219 209.363281 51.3125 210.429688 51.949219 C 211.5 52.589844 212.546875 53.253906 213.582031 53.945312 C 214.617188 54.636719 215.632812 55.351562 216.632812 56.09375 C 217.632812 56.835938 218.613281 57.597656 219.574219 58.386719 C 220.535156 59.175781 221.476562 59.988281 222.398438 60.824219 C 223.320312 61.660156 224.21875 62.515625 225.101562 63.394531 C 225.980469 64.277344 226.835938 65.175781 227.671875 66.097656 C 228.507812 67.019531 229.320312 67.960938 230.109375 68.921875 C 230.898438 69.882812 231.664062 70.863281 232.402344 71.863281 C 233.144531 72.859375 233.859375 73.878906 234.550781 74.910156 C 235.242188 75.945312 235.90625 76.996094 236.546875 78.0625 C 237.1875 79.128906 237.800781 80.210938 238.386719 81.308594 C 238.972656 82.402344 239.53125 83.515625 240.0625 84.640625 C 240.59375 85.761719 241.097656 86.898438 241.574219 88.046875 C 242.050781 89.199219 242.5 90.359375 242.917969 91.527344 C 243.335938 92.699219 243.726562 93.878906 244.085938 95.070312 C 244.449219 96.261719 244.78125 97.457031 245.082031 98.664062 C 245.382812 99.871094 245.65625 101.085938 245.898438 102.304688 C 246.140625 103.523438 246.355469 104.75 246.539062 105.980469 C 246.71875 107.207031 246.871094 108.441406 246.992188 109.679688 C 247.117188 110.917969 247.207031 112.15625 247.269531 113.398438 C 247.328125 114.640625 247.359375 115.886719 247.359375 117.128906 C 247.359375 118.371094 247.328125 119.613281 247.269531 120.855469 C 247.207031 122.097656 247.117188 123.339844 246.992188 124.578125 C 246.871094 125.8125 246.71875 127.046875 246.539062 128.277344 C 246.355469 129.507812 246.140625 130.734375 245.898438 131.953125 C 245.65625 133.171875 245.382812 134.386719 245.082031 135.59375 C 244.78125 136.796875 244.449219 137.996094 244.085938 139.1875 C 243.726562 140.375 243.335938 141.558594 242.917969 142.726562 C 242.5 143.898438 242.050781 145.058594 241.574219 146.207031 C 241.097656 147.355469 240.59375 148.492188 240.0625 149.617188 C 239.53125 150.742188 238.972656 151.851562 238.386719 152.949219 C 237.800781 154.046875 237.1875 155.128906 236.546875 156.195312 C 235.90625 157.261719 235.242188 158.3125 234.550781 159.34375 C 233.859375 160.378906 233.144531 161.394531 232.402344 162.394531 C 231.664062 163.394531 230.898438 164.375 230.109375 165.335938 C 229.320312 166.296875 228.507812 167.238281 227.671875 168.160156 C 226.835938 169.082031 225.980469 169.980469 225.101562 170.859375 C 224.21875 171.738281 223.320312 172.597656 222.398438 173.433594 C 221.476562 174.265625 220.535156 175.078125 219.574219 175.867188 C 218.613281 176.65625 217.632812 177.421875 216.632812 178.164062 C 215.632812 178.902344 214.617188 179.621094 213.582031 180.3125 C 212.546875 181 211.5 181.667969 210.429688 182.304688 C 209.363281 182.945312 208.28125 183.558594 207.1875 184.144531 C 206.089844 184.730469 204.976562 185.289062 203.855469 185.820312 C 202.730469 186.351562 201.59375 186.855469 200.441406 187.332031 C 199.292969 187.808594 198.132812 188.257812 196.964844 188.675781 C 195.792969 189.09375 194.609375 189.484375 193.421875 189.84375 C 192.230469 190.207031 191.03125 190.539062 189.824219 190.839844 C 188.621094 191.140625 187.40625 191.414062 186.1875 191.65625 C 184.964844 191.898438 183.742188 192.113281 182.511719 192.292969 C 181.28125 192.476562 180.046875 192.628906 178.808594 192.75 C 177.570312 192.875 176.332031 192.964844 175.089844 193.027344 C 173.847656 193.085938 172.601562 193.117188 171.359375 193.117188 C 170.117188 193.117188 168.875 193.082031 167.632812 193.019531 C 166.390625 192.957031 165.148438 192.863281 163.914062 192.742188 C 162.675781 192.617188 161.441406 192.464844 160.214844 192.28125 C 158.984375 192.097656 157.757812 191.882812 156.539062 191.640625 C 155.320312 191.394531 154.109375 191.121094 152.902344 190.820312 C 151.695312 190.515625 150.5 190.183594 149.308594 189.820312 C 148.121094 189.460938 146.941406 189.066406 145.769531 188.648438 C 144.597656 188.230469 143.441406 187.78125 142.292969 187.304688 C 141.144531 186.828125 140.007812 186.324219 138.882812 185.792969 C 137.761719 185.257812 136.648438 184.699219 135.554688 184.113281 C 134.457031 183.527344 133.375 182.914062 132.308594 182.273438 C 131.246094 181.632812 130.195312 180.96875 129.160156 180.277344 C 128.128906 179.585938 127.113281 178.871094 126.113281 178.128906 C 125.113281 177.390625 124.136719 176.625 123.175781 175.835938 C 122.214844 175.046875 121.273438 174.234375 120.351562 173.398438 C 119.429688 172.566406 118.53125 171.707031 117.648438 170.828125 C 116.769531 169.949219 115.914062 169.050781 115.078125 168.128906 C 114.242188 167.207031 113.433594 166.265625 112.644531 165.304688 C 111.855469 164.34375 111.089844 163.367188 110.347656 162.367188 C 109.605469 161.371094 108.890625 160.351562 108.199219 159.320312 C 107.507812 158.285156 106.84375 157.238281 106.203125 156.171875 C 105.5625 155.105469 104.949219 154.023438 104.363281 152.929688 C 103.777344 151.832031 103.21875 150.722656 102.6875 149.597656 C 102.152344 148.476562 101.648438 147.339844 101.171875 146.191406 C 100.695312 145.042969 100.246094 143.882812 99.828125 142.714844 C 99.40625 141.542969 99.015625 140.363281 98.65625 139.175781 C 98.292969 137.984375 97.960938 136.789062 97.65625 135.582031 C 97.355469 134.375 97.082031 133.164062 96.835938 131.945312 C 96.59375 130.726562 96.378906 129.503906 96.195312 128.273438 C 96.011719 127.042969 95.859375 125.808594 95.734375 124.574219 C 95.609375 123.335938 95.519531 122.097656 95.457031 120.855469 C 95.394531 119.613281 95.359375 118.371094 95.359375 117.128906 Z M 103.769531 165.546875 C 105.644531 168.160156 107.664062 170.65625 109.828125 173.035156 C 111.992188 175.414062 114.285156 177.660156 116.710938 179.773438 C 119.136719 181.886719 121.675781 183.855469 124.328125 185.671875 C 126.980469 187.492188 129.726562 189.152344 132.574219 190.652344 C 135.417969 192.152344 138.339844 193.480469 141.339844 194.644531 C 144.339844 195.804688 147.394531 196.789062 150.511719 197.59375 C 153.625 198.402344 156.773438 199.027344 159.960938 199.46875 C 163.144531 199.910156 166.347656 200.164062 169.5625 200.234375 L 91.546875 232.585938 L 33.703125 174.894531 Z M 103.769531 165.546875 " fill-opacity="1" fill-rule="nonzero"/></g><path fill="#000000" d="M 158.382812 167.199219 C 158.679688 167.234375 158.980469 167.234375 159.28125 167.199219 C 159.757812 167.261719 160.226562 167.230469 160.691406 167.105469 C 161.15625 166.980469 161.578125 166.769531 161.957031 166.476562 C 162.339844 166.183594 162.648438 165.828125 162.890625 165.414062 C 163.128906 164.996094 163.28125 164.550781 163.34375 164.074219 C 163.402344 163.597656 163.371094 163.125 163.246094 162.660156 C 163.121094 162.199219 162.914062 161.777344 162.621094 161.394531 C 162.328125 161.015625 161.972656 160.703125 161.554688 160.464844 C 161.136719 160.222656 160.691406 160.074219 160.214844 160.011719 C 158.929688 159.691406 157.660156 159.316406 156.40625 158.878906 C 155.15625 158.445312 153.925781 157.953125 152.71875 157.40625 C 151.511719 156.863281 150.332031 156.261719 149.179688 155.609375 C 148.027344 154.953125 146.90625 154.25 145.820312 153.496094 C 144.730469 152.738281 143.675781 151.9375 142.660156 151.085938 C 141.644531 150.234375 140.671875 149.339844 139.738281 148.402344 C 138.800781 147.460938 137.910156 146.484375 137.066406 145.460938 C 136.222656 144.441406 135.421875 143.386719 134.671875 142.292969 C 133.925781 141.203125 133.226562 140.078125 132.578125 138.921875 C 131.929688 137.765625 131.335938 136.582031 130.796875 135.375 C 130.253906 134.164062 129.769531 132.933594 129.34375 131.679688 C 128.914062 130.425781 128.542969 129.152344 128.230469 127.867188 C 127.917969 126.578125 127.664062 125.28125 127.46875 123.96875 C 127.273438 122.660156 127.136719 121.34375 127.0625 120.019531 C 126.988281 118.699219 126.972656 117.375 127.015625 116.050781 C 127.058594 114.726562 127.164062 113.40625 127.328125 112.09375 C 127.492188 110.777344 127.71875 109.472656 128 108.179688 C 128.28125 106.886719 128.625 105.605469 129.023438 104.34375 C 129.421875 103.078125 129.875 101.835938 130.386719 100.613281 C 130.898438 99.394531 131.464844 98.195312 132.085938 97.027344 C 132.707031 95.855469 133.378906 94.714844 134.101562 93.605469 C 134.828125 92.496094 135.597656 91.421875 136.421875 90.382812 C 137.242188 89.34375 138.109375 88.34375 139.019531 87.382812 C 139.933594 86.421875 140.886719 85.503906 141.882812 84.628906 C 142.878906 83.753906 143.910156 82.925781 144.980469 82.144531 C 146.054688 81.367188 147.15625 80.636719 148.292969 79.953125 C 149.429688 79.273438 150.597656 78.648438 151.789062 78.074219 C 152.984375 77.5 154.203125 76.980469 155.441406 76.515625 C 156.683594 76.050781 157.941406 75.644531 159.222656 75.292969 C 160.5 74.945312 161.789062 74.652344 163.09375 74.421875 C 164.398438 74.1875 165.710938 74.015625 167.03125 73.902344 C 168.351562 73.789062 169.675781 73.734375 171 73.742188 L 171.289062 73.742188 C 172.691406 73.71875 174.089844 73.765625 175.488281 73.878906 C 176.886719 73.992188 178.277344 74.175781 179.65625 74.421875 C 181.039062 74.671875 182.402344 74.988281 183.753906 75.371094 C 185.101562 75.753906 186.429688 76.203125 187.734375 76.714844 C 189.042969 77.226562 190.320312 77.800781 191.570312 78.4375 C 192.820312 79.074219 194.035156 79.769531 195.21875 80.523438 C 196.398438 81.28125 197.542969 82.089844 198.644531 82.957031 C 199.75 83.824219 200.808594 84.742188 201.820312 85.714844 C 202.832031 86.683594 203.796875 87.699219 204.710938 88.765625 C 205.625 89.828125 206.484375 90.933594 207.292969 92.082031 C 208.097656 93.230469 208.847656 94.414062 209.539062 95.636719 C 210.226562 96.855469 210.859375 98.105469 211.425781 99.390625 C 211.996094 100.671875 212.5 101.980469 212.941406 103.308594 C 213.382812 104.640625 213.757812 105.992188 214.066406 107.359375 C 214.375 108.726562 214.617188 110.109375 214.792969 111.5 C 214.964844 112.890625 215.074219 114.289062 215.113281 115.691406 C 215.328125 120.578125 214.753906 125.371094 213.386719 130.070312 C 212.867188 131.875 212.132812 133.589844 211.183594 135.210938 C 210.234375 136.832031 209.097656 138.3125 207.777344 139.644531 C 206.453125 140.980469 204.984375 142.132812 203.371094 143.097656 C 201.761719 144.0625 200.050781 144.8125 198.25 145.34375 C 197.199219 145.796875 196.101562 146.007812 194.960938 145.976562 C 193.816406 145.945312 192.730469 145.675781 191.707031 145.164062 C 190.019531 143.90625 189.082031 140.527344 189.046875 135.675781 L 189.046875 91.03125 C 189.046875 90.554688 188.957031 90.097656 188.773438 89.65625 C 188.589844 89.214844 188.332031 88.828125 187.992188 88.488281 C 187.65625 88.152344 187.269531 87.894531 186.828125 87.710938 C 186.386719 87.527344 185.929688 87.4375 185.453125 87.4375 C 184.976562 87.4375 184.515625 87.527344 184.078125 87.710938 C 183.636719 87.894531 183.246094 88.152344 182.910156 88.488281 C 182.574219 88.828125 182.3125 89.214844 182.128906 89.65625 C 181.949219 90.097656 181.855469 90.554688 181.855469 91.03125 L 181.855469 92.074219 C 180.503906 90.691406 178.96875 89.558594 177.246094 88.679688 C 175.523438 87.800781 173.703125 87.21875 171.789062 86.933594 C 170.414062 86.851562 169.050781 86.949219 167.695312 87.21875 C 166.34375 87.492188 165.050781 87.933594 163.8125 88.539062 C 162.574219 89.148438 161.433594 89.902344 160.390625 90.808594 C 159.347656 91.710938 158.4375 92.730469 157.660156 93.871094 C 148.0625 105.410156 148.78125 123.921875 155.039062 135.171875 C 158.632812 141.894531 164.097656 145.308594 169.632812 144.554688 C 174.113281 144.011719 178.273438 142.550781 182.109375 140.167969 C 182.136719 141.222656 182.273438 142.265625 182.519531 143.289062 C 182.765625 144.316406 183.113281 145.304688 183.566406 146.257812 C 184.015625 147.210938 184.5625 148.109375 185.203125 148.949219 C 185.839844 149.785156 186.558594 150.550781 187.359375 151.242188 C 188.296875 151.855469 189.292969 152.351562 190.351562 152.730469 C 191.40625 153.109375 192.492188 153.355469 193.609375 153.476562 C 194.726562 153.59375 195.839844 153.578125 196.953125 153.433594 C 198.066406 153.285156 199.144531 153.011719 200.191406 152.605469 C 201.378906 152.253906 202.539062 151.824219 203.671875 151.324219 C 204.804688 150.824219 205.902344 150.253906 206.964844 149.617188 C 208.023438 148.980469 209.042969 148.277344 210.015625 147.507812 C 210.988281 146.742188 211.90625 145.917969 212.777344 145.035156 C 213.644531 144.152344 214.453125 143.21875 215.207031 142.234375 C 215.957031 141.25 216.644531 140.222656 217.265625 139.152344 C 217.886719 138.078125 218.4375 136.972656 218.917969 135.832031 C 219.402344 134.691406 219.808594 133.527344 220.144531 132.332031 C 220.425781 131.386719 220.679688 130.433594 220.902344 129.472656 C 221.128906 128.511719 221.328125 127.542969 221.496094 126.570312 C 221.664062 125.597656 221.804688 124.621094 221.917969 123.640625 C 222.03125 122.660156 222.113281 121.675781 222.167969 120.691406 C 222.222656 119.703125 222.25 118.71875 222.25 117.730469 C 222.246094 116.742188 222.214844 115.757812 222.15625 114.773438 C 222.097656 113.785156 222.007812 112.804688 221.890625 111.824219 C 221.773438 110.84375 221.628906 109.867188 221.457031 108.894531 C 221.28125 107.921875 221.082031 106.957031 220.851562 105.996094 C 220.621094 105.035156 220.363281 104.082031 220.078125 103.140625 C 219.792969 102.195312 219.480469 101.257812 219.140625 100.332031 C 218.800781 99.402344 218.433594 98.488281 218.042969 97.582031 C 217.648438 96.675781 217.230469 95.78125 216.785156 94.898438 C 216.339844 94.019531 215.871094 93.152344 215.375 92.296875 C 214.878906 91.441406 214.359375 90.605469 213.816406 89.78125 C 213.273438 88.957031 212.703125 88.148438 212.113281 87.359375 C 211.523438 86.566406 210.910156 85.792969 210.273438 85.039062 C 209.636719 84.285156 208.980469 83.546875 208.300781 82.832031 C 207.621094 82.113281 206.921875 81.417969 206.203125 80.742188 C 205.484375 80.066406 204.746094 79.410156 203.988281 78.777344 C 203.230469 78.144531 202.457031 77.53125 201.664062 76.945312 C 200.871094 76.355469 200.058594 75.789062 199.234375 75.25 C 198.410156 74.707031 197.566406 74.191406 196.710938 73.699219 C 195.855469 73.207031 194.988281 72.738281 194.105469 72.296875 C 193.222656 71.855469 192.324219 71.441406 191.417969 71.050781 C 190.511719 70.660156 189.59375 70.296875 188.664062 69.960938 C 187.738281 69.625 186.800781 69.316406 185.851562 69.035156 C 184.90625 68.75 183.953125 68.496094 182.992188 68.269531 C 182.03125 68.042969 181.0625 67.847656 180.089844 67.675781 C 179.117188 67.503906 178.140625 67.363281 177.160156 67.25 C 176.179688 67.136719 175.195312 67.050781 174.210938 66.996094 C 173.226562 66.9375 172.238281 66.910156 171.25 66.914062 L 170.964844 66.914062 C 169.433594 66.917969 167.902344 66.992188 166.378906 67.136719 C 164.855469 67.28125 163.339844 67.492188 161.832031 67.769531 C 160.328125 68.050781 158.835938 68.398438 157.363281 68.8125 C 155.886719 69.226562 154.433594 69.707031 153.003906 70.25 C 151.570312 70.796875 150.167969 71.40625 148.789062 72.078125 C 147.414062 72.75 146.070312 73.480469 144.761719 74.273438 C 143.449219 75.066406 142.175781 75.917969 140.941406 76.824219 C 139.710938 77.730469 138.519531 78.691406 137.371094 79.707031 C 136.222656 80.722656 135.125 81.785156 134.074219 82.902344 C 133.023438 84.015625 132.023438 85.171875 131.078125 86.378906 C 130.128906 87.582031 129.238281 88.824219 128.40625 90.109375 C 127.570312 91.394531 126.796875 92.714844 126.078125 94.066406 C 125.363281 95.421875 124.710938 96.804688 124.121094 98.21875 C 123.527344 99.628906 123.003906 101.066406 122.539062 102.527344 C 122.078125 103.988281 121.683594 105.464844 121.355469 106.960938 C 121.027344 108.457031 120.769531 109.964844 120.574219 111.484375 C 120.382812 113.003906 120.261719 114.527344 120.203125 116.058594 C 120.148438 117.589844 120.164062 119.121094 120.246094 120.648438 C 120.332031 122.179688 120.480469 123.699219 120.703125 125.214844 C 120.921875 126.730469 121.210938 128.234375 121.566406 129.722656 C 121.921875 131.214844 122.34375 132.683594 122.832031 134.136719 C 123.320312 135.585938 123.875 137.015625 124.492188 138.417969 C 125.109375 139.816406 125.789062 141.1875 126.527344 142.53125 C 127.269531 143.871094 128.070312 145.175781 128.925781 146.441406 C 129.785156 147.710938 130.699219 148.9375 131.667969 150.125 C 132.636719 151.3125 133.65625 152.453125 134.730469 153.546875 C 135.800781 154.640625 136.917969 155.683594 138.085938 156.675781 C 139.25 157.671875 140.457031 158.609375 141.710938 159.492188 C 142.960938 160.378906 144.246094 161.203125 145.574219 161.972656 C 146.898438 162.742188 148.253906 163.449219 149.644531 164.09375 C 151.03125 164.742188 152.445312 165.324219 153.886719 165.84375 C 155.328125 166.359375 156.789062 166.8125 158.273438 167.199219 Z M 181.855469 109.6875 L 181.855469 130.789062 C 180.164062 132.6875 178.175781 134.195312 175.894531 135.3125 C 173.609375 136.433594 171.199219 137.082031 168.664062 137.257812 C 166.21875 137.546875 163.523438 135.425781 161.472656 131.46875 C 156.511719 122.554688 155.792969 107.316406 163.304688 98.292969 C 164.121094 97.066406 165.160156 96.066406 166.414062 95.292969 C 167.671875 94.519531 169.03125 94.046875 170.496094 93.871094 L 171.070312 93.871094 C 175.816406 94.375 180.203125 100.59375 181.855469 103.71875 Z M 181.855469 109.6875 " fill-opacity="1" fill-rule="nonzero"/></svg>